Compositore: Maurice Ravel
Opere: Daphnis et Chloe - Bolero
Data Incisione: 1992
Uscita Album: 2001
Genere:Classica
Etichetta: EMI Classic Records
N° Dischi:1
Tracce: 14
Formato: Flac
Durata: 73 min 43 s
Fonte: Cd Originale

user posted image

01 - Introduction - Sacred Dance
02 - The young girls attract Daphnis's attention - General dance
03 - Grotesque dance - Dorcon
04 - Light & graceful dance - Daphnis
05 - All invite Daphnis to receive the prize - Lyceion's dance
06 - The clash of arms is heard
07 - A strange light envelops the countryside
08 - Interlude
09 - Bryaxis calls for the captured girl
10 - Bryaxis tries to bear her away
11 - Daybreak
12 - The old shepherd Lammon explains
13 - Before the altar of the Nymphs
14 - Bolero

user posted image

	EAC	
		
	
		
	Exact Audio Copy V0.99 prebeta 5 from 4. May 2009

EAC extraction logfile from 5. August 2010, 19:16

Maurice Ravel / Daphnis et Chloe - Bolero

Used drive : _NEC DVD_RW ND-4551A Adapter: 2 ID: 2

Read mode : Secure
Utilize accurate stream : Yes
Defeat audio cache : Yes
Make use of C2 pointers : No

Read offset correction : 48
Overread into Lead-In and Lead-Out : No
Fill up missing offset samples with silence : Yes
Delete leading and trailing silent blocks : No
Null samples used in CRC calculations : Yes
Used interface : Native Win32 interface for Win NT & 2000
Gap handling : Not detected, thus appended to previous track

Used output format : User Defined Encoder
Selected bitrate : 768 kBit/s
Quality : High
Add ID3 tag : No
Command line compressor : C:\Programmi\Exact Audio Copy\FLAC\FLAC.EXE
Additional command line options : -8 -V -T "artist=%a" -T "title=%t" -T "album=%g" -T "date=%y" -T "tracknumber=%n" -T "genre=%m" %s


TOC of the extracted CD

Track | Start | Length | Start sector | End sector
---------------------------------------------------------
1 | 0:00.31 | 8:15.23 | 31 | 37178
2 | 8:15.54 | 3:14.68 | 37179 | 51796
3 | 11:30.47 | 1:45.15 | 51797 | 59686
4 | 13:15.62 | 2:57.22 | 59687 | 72983
5 | 16:13.09 | 3:29.23 | 72984 | 88681
6 | 19:42.32 | 1:44.67 | 88682 | 96548
7 | 21:27.24 | 5:29.45 | 96549 | 121268
8 | 26:56.69 | 6:19.13 | 121269 | 149706
9 | 33:16.07 | 4:01.70 | 149707 | 167851
10 | 37:18.02 | 2:41.72 | 167852 | 179998
11 | 39:59.74 | 5:25.45 | 179999 | 204418
12 | 45:25.44 | 6:51.38 | 204419 | 235281
13 | 52:17.07 | 5:05.10 | 235282 | 258166
14 | 57:22.17 | 16:15.15 | 258167 | 331306


Track 1

Filename G:\Musica\01 - Introduction - Sacred Dance.wav

Peak level 83.9 %
Track quality 100.0 %
Test CRC D8ECCE9C
Copy CRC D8ECCE9C
Track not present in AccurateRip database
Copy OK

Track 2

Filename G:\Musica\02 - The young girls attract Daphnis's attention - General dance.wav

Peak level 36.8 %
Track quality 99.9 %
Test CRC 719FE5EA
Copy CRC 719FE5EA
Track not present in AccurateRip database
Copy OK

Track 3

Filename G:\Musica\03 - Grotesque dance - Dorcon.wav

Peak level 48.5 %
Track quality 100.0 %
Test CRC 1B5F7F5C
Copy CRC 1B5F7F5C
Track not present in AccurateRip database
Copy OK

Track 4

Filename G:\Musica\04 - Light & graceful dance - Daphnis.wav

Peak level 12.0 %
Track quality 99.9 %
Test CRC D8C2B589
Copy CRC D8C2B589
Track not present in AccurateRip database
Copy OK

Track 5

Filename G:\Musica\05 - All invite Daphnis to receive the prize - Lyceion's dance.wav

Peak level 34.1 %
Track quality 100.0 %
Test CRC 095D88F9
Copy CRC 095D88F9
Track not present in AccurateRip database
Copy OK

Track 6

Filename G:\Musica\06 - The clash of arms is heard.wav

Peak level 68.0 %
Track quality 100.0 %
Test CRC BBB4F5BD
Copy CRC BBB4F5BD
Track not present in AccurateRip database
Copy OK

Track 7

Filename G:\Musica\07 - A strange light envelops the countryside.wav

Peak level 17.1 %
Track quality 100.0 %
Test CRC 8E1D3F01
Copy CRC 8E1D3F01
Track not present in AccurateRip database
Copy OK

Track 8

Filename G:\Musica\08 - Interlude.wav

Peak level 98.7 %
Track quality 100.0 %
Test CRC B58C6DD5
Copy CRC B58C6DD5
Track not present in AccurateRip database
Copy OK

Track 9

Filename G:\Musica\09 - Bryaxis calls for the captured girl.wav

Peak level 32.9 %
Track quality 100.0 %
Test CRC E1DB1F73
Copy CRC E1DB1F73
Track not present in AccurateRip database
Copy OK

Track 10

Filename G:\Musica\10 - Bryaxis tries to bear her away.wav

Peak level 99.8 %
Track quality 100.0 %
Test CRC 6C970BA5
Copy CRC 6C970BA5
Track not present in AccurateRip database
Copy OK

Track 11

Filename G:\Musica\11 - Daybreak.wav

Peak level 92.6 %
Track quality 100.0 %
Test CRC 98787337
Copy CRC 98787337
Track not present in AccurateRip database
Copy OK

Track 12

Filename G:\Musica\12 - The old shepherd Lammon explains.wav

Peak level 21.5 %
Track quality 100.0 %
Test CRC 7B6BE4DD
Copy CRC 7B6BE4DD
Track not present in AccurateRip database
Copy OK

Track 13

Filename G:\Musica\13 - Before the altar of the Nymphs.wav

Peak level 99.8 %
Track quality 100.0 %
Test CRC 0657B152
Copy CRC 0657B152
Track not present in AccurateRip database
Copy OK

Track 14

Filename G:\Musica\14 - Bolero.wav

Peak level 99.0 %
Track quality 99.9 %
Test CRC 8F1178ED
Copy CRC 8F1178ED
Track not present in AccurateRip database
Copy OK


None of the tracks are present in the AccurateRip database

No errors occurred

End of status report